<?xml version="1.0" encoding="UTF-8" standalone="no"?>
<!DOCTYPE svg PUBLIC "-//W3C//DTD SVG 1.1//EN"
 "http://www.w3.org/Graphics/SVG/1.1/DTD/svg11.dtd">
<!-- Generated by graphviz version 2.40.1 (20161225.0304)
 -->
<!-- Title: G Pages: 1 -->
<svg width="498pt" height="416pt"
 viewBox="0.00 0.00 498.00 416.00" xmlns="http://www.w3.org/2000/svg" xmlns:xlink="http://www.w3.org/1999/xlink">
<g id="graph0" class="graph" transform="scale(1 1) rotate(0) translate(4 412)">
<title>G</title>
<polygon fill="#ffffff" stroke="transparent" points="-4,4 -4,-412 494,-412 494,4 -4,4"/>
<g id="clust1" class="cluster">
<title>cluster1</title>
<polygon fill="none" stroke="#000000" points="246,-162 246,-318 342,-318 342,-162 246,-162"/>
<text text-anchor="middle" x="294" y="-302.8" font-family="Times,serif" font-size="14.00" fill="#000000">services</text>
</g>
<g id="clust2" class="cluster">
<title>cluster2</title>
<polygon fill="none" stroke="#000000" points="126,-80 126,-236 238,-236 238,-80 126,-80"/>
<text text-anchor="middle" x="182" y="-220.8" font-family="Times,serif" font-size="14.00" fill="#000000">repositories</text>
</g>
<g id="clust3" class="cluster">
<title>cluster3</title>
<polygon fill="none" stroke="#000000" points="8,-162 8,-400 118,-400 118,-162 8,-162"/>
<text text-anchor="middle" x="63" y="-384.8" font-family="Times,serif" font-size="14.00" fill="#000000">interface</text>
</g>
<g id="clust4" class="cluster">
<title>cluster4</title>
<polygon fill="none" stroke="#000000" points="380,-244 380,-400 482,-400 482,-244 380,-244"/>
<text text-anchor="middle" x="431" y="-384.8" font-family="Times,serif" font-size="14.00" fill="#000000">gateways</text>
</g>
<g id="clust5" class="cluster">
<title>cluster5</title>
<polygon fill="none" stroke="#000000" points="28,-8 28,-154 118,-154 118,-8 28,-8"/>
<text text-anchor="middle" x="73" y="-138.8" font-family="Times,serif" font-size="14.00" fill="#000000">domain</text>
</g>
<g id="clust6" class="cluster">
<title>cluster6</title>
<polygon fill="none" stroke="#000000" points="236,-326 236,-400 320,-400 320,-326 236,-326"/>
<text text-anchor="middle" x="278" y="-384.8" font-family="Times,serif" font-size="14.00" fill="#000000">main</text>
</g>
<!-- node12 -->
<g id="node1" class="node">
<title>node12</title>
<polygon fill="none" stroke="#000000" points="311.7077,-370 244.2923,-370 244.2923,-334 311.7077,-334 311.7077,-370"/>
<text text-anchor="middle" x="278" y="-347.8" font-family="Times,serif" font-size="14.00" fill="#000000">main.cpp</text>
</g>
<!-- node5 -->
<g id="node2" class="node">
<title>node5</title>
<polygon fill="none" stroke="#000000" points="110,-288 56,-288 56,-252 110,-252 110,-288"/>
<text text-anchor="middle" x="83" y="-265.8" font-family="Times,serif" font-size="14.00" fill="#000000">api.h</text>
</g>
<!-- node12&#45;&gt;node5 -->
<g id="edge1" class="edge">
<title>node12&#45;&gt;node5</title>
<path fill="none" stroke="#000000" d="M244.0336,-337.7167C209.3236,-323.1207 155.5861,-300.5234 119.8613,-285.5007"/>
<polygon fill="#000000" stroke="#000000" points="120.8684,-282.1273 110.2935,-281.4773 118.1549,-288.58 120.8684,-282.1273"/>
</g>
<!-- node1 -->
<g id="node3" class="node">
<title>node1</title>
<polygon fill="none" stroke="#000000" points="320.1418,-206 253.8582,-206 253.8582,-170 320.1418,-170 320.1418,-206"/>
<text text-anchor="middle" x="287" y="-183.8" font-family="Times,serif" font-size="14.00" fill="#000000">service.h</text>
</g>
<!-- node12&#45;&gt;node1 -->
<g id="edge11" class="edge">
<title>node12&#45;&gt;node1</title>
<path fill="none" stroke="#000000" d="M255.4828,-333.8032C251.2121,-329.1437 247.3493,-323.7935 245,-318 232.6411,-287.5216 234.5996,-275.2011 245,-244 248.553,-233.341 255.0176,-223.077 261.8274,-214.313"/>
<polygon fill="#000000" stroke="#000000" points="264.6936,-216.3395 268.3783,-206.406 259.3032,-211.8735 264.6936,-216.3395"/>
</g>
<!-- node4 -->
<g id="node5" class="node">
<title>node4</title>
<polygon fill="none" stroke="#000000" points="226.3572,-124 143.6428,-124 143.6428,-88 226.3572,-88 226.3572,-124"/>
<text text-anchor="middle" x="185" y="-101.8" font-family="Times,serif" font-size="14.00" fill="#000000">repository.h</text>
</g>
<!-- node12&#45;&gt;node4 -->
<g id="edge14" class="edge">
<title>node12&#45;&gt;node4</title>
<path fill="none" stroke="#000000" d="M312.0329,-343.3485C324.9859,-338.2187 338.4363,-330.2382 346,-318 382.4507,-259.0215 386.1738,-218.5082 346,-162 332.9032,-143.5781 278.1127,-127.2022 236.0485,-116.9896"/>
<polygon fill="#000000" stroke="#000000" points="236.7431,-113.5573 226.2052,-114.6544 235.1272,-120.3683 236.7431,-113.5573"/>
</g>
<!-- node9 -->
<g id="node7" class="node">
<title>node9</title>
<polygon fill="none" stroke="#000000" points="462.2328,-288 389.7672,-288 389.7672,-252 462.2328,-252 462.2328,-288"/>
<text text-anchor="middle" x="426" y="-265.8" font-family="Times,serif" font-size="14.00" fill="#000000">gateway.h</text>
</g>
<!-- node12&#45;&gt;node9 -->
<g id="edge6" class="edge">
<title>node12&#45;&gt;node9</title>
<path fill="none" stroke="#000000" d="M311.7983,-344.1567C331.4588,-338.6707 356.1883,-330.1322 376,-318 385.6975,-312.0615 395.0487,-303.9666 402.9879,-296.1165"/>
<polygon fill="#000000" stroke="#000000" points="405.9797,-298.0578 410.417,-288.4369 400.9485,-293.1908 405.9797,-298.0578"/>
</g>
<!-- node5&#45;&gt;node1 -->
<g id="edge2" class="edge">
<title>node5&#45;&gt;node1</title>
<path fill="none" stroke="#000000" d="M110.1739,-264.6287C154.063,-255.8912 236.2548,-239.2451 242,-236 251.7983,-230.4657 260.7194,-222.0825 267.9874,-213.8626"/>
<polygon fill="#000000" stroke="#000000" points="270.7163,-216.0551 274.4239,-206.1301 265.3363,-211.5768 270.7163,-216.0551"/>
</g>
<!-- node7 -->
<g id="node9" class="node">
<title>node7</title>
<polygon fill="none" stroke="#000000" points="110,-206 56,-206 56,-170 110,-170 110,-206"/>
<text text-anchor="middle" x="83" y="-183.8" font-family="Times,serif" font-size="14.00" fill="#000000">msg.h</text>
</g>
<!-- node5&#45;&gt;node7 -->
<g id="edge8" class="edge">
<title>node5&#45;&gt;node7</title>
<path fill="none" stroke="#000000" d="M83,-251.8015C83,-241.3976 83,-228.1215 83,-216.3768"/>
<polygon fill="#000000" stroke="#000000" points="86.5001,-216.1476 83,-206.1476 79.5001,-216.1476 86.5001,-216.1476"/>
</g>
<!-- node1&#45;&gt;node4 -->
<g id="edge4" class="edge">
<title>node1&#45;&gt;node4</title>
<path fill="none" stroke="#000000" d="M264.3629,-169.8015C249.9688,-158.2298 231.155,-143.105 215.4582,-130.486"/>
<polygon fill="#000000" stroke="#000000" points="217.5606,-127.6854 207.5738,-124.1476 213.1746,-133.141 217.5606,-127.6854"/>
</g>
<!-- node3 -->
<g id="node4" class="node">
<title>node3</title>
<polygon fill="none" stroke="#000000" points="229.5713,-206 134.4287,-206 134.4287,-170 229.5713,-170 229.5713,-206"/>
<text text-anchor="middle" x="182" y="-183.8" font-family="Times,serif" font-size="14.00" fill="#000000">repository.cpp</text>
</g>
<!-- node3&#45;&gt;node4 -->
<g id="edge3" class="edge">
<title>node3&#45;&gt;node4</title>
<path fill="none" stroke="#000000" d="M182.6658,-169.8015C183.0464,-159.3976 183.5321,-146.1215 183.9618,-134.3768"/>
<polygon fill="#000000" stroke="#000000" points="187.468,-134.2689 184.3361,-124.1476 180.4727,-134.0129 187.468,-134.2689"/>
</g>
<!-- node10 -->
<g id="node11" class="node">
<title>node10</title>
<polygon fill="none" stroke="#000000" points="106.9952,-52 45.0048,-52 45.0048,-16 106.9952,-16 106.9952,-52"/>
<text text-anchor="middle" x="76" y="-29.8" font-family="Times,serif" font-size="14.00" fill="#000000">model.h</text>
</g>
<!-- node4&#45;&gt;node10 -->
<g id="edge13" class="edge">
<title>node4&#45;&gt;node10</title>
<path fill="none" stroke="#000000" d="M157.4947,-87.8314C143.682,-78.7074 126.7744,-67.539 111.9471,-57.7449"/>
<polygon fill="#000000" stroke="#000000" points="113.7696,-54.7541 103.4965,-52.1628 109.9114,-60.5949 113.7696,-54.7541"/>
</g>
<!-- node6 -->
<g id="node6" class="node">
<title>node6</title>
<polygon fill="none" stroke="#000000" points="110.1617,-370 15.8383,-370 15.8383,-334 110.1617,-334 110.1617,-370"/>
<text text-anchor="middle" x="63" y="-347.8" font-family="Times,serif" font-size="14.00" fill="#000000">cargo_api.cpp</text>
</g>
<!-- node6&#45;&gt;node5 -->
<g id="edge5" class="edge">
<title>node6&#45;&gt;node5</title>
<path fill="none" stroke="#000000" d="M67.4386,-333.8015C70.0021,-323.2915 73.2804,-309.8503 76.1664,-298.0177"/>
<polygon fill="#000000" stroke="#000000" points="79.6044,-298.6922 78.5738,-288.1476 72.8038,-297.0334 79.6044,-298.6922"/>
</g>
<!-- node9&#45;&gt;node1 -->
<g id="edge10" class="edge">
<title>node9&#45;&gt;node1</title>
<path fill="none" stroke="#000000" d="M395.1514,-251.8015C374.9061,-239.8583 348.2447,-224.13 326.4597,-211.2784"/>
<polygon fill="#000000" stroke="#000000" points="328.1537,-208.2141 317.7624,-206.1476 324.597,-214.2432 328.1537,-208.2141"/>
</g>
<!-- node8 -->
<g id="node8" class="node">
<title>node8</title>
<polygon fill="none" stroke="#000000" points="473.9475,-370 388.0525,-370 388.0525,-334 473.9475,-334 473.9475,-370"/>
<text text-anchor="middle" x="431" y="-347.8" font-family="Times,serif" font-size="14.00" fill="#000000">gateway.cpp</text>
</g>
<!-- node8&#45;&gt;node9 -->
<g id="edge7" class="edge">
<title>node8&#45;&gt;node9</title>
<path fill="none" stroke="#000000" d="M429.8903,-333.8015C429.256,-323.3976 428.4464,-310.1215 427.7303,-298.3768"/>
<polygon fill="#000000" stroke="#000000" points="431.2088,-297.916 427.1066,-288.1476 424.2218,-298.3421 431.2088,-297.916"/>
</g>
<!-- node11 -->
<g id="node10" class="node">
<title>node11</title>
<polygon fill="none" stroke="#000000" points="110.2076,-124 35.7924,-124 35.7924,-88 110.2076,-88 110.2076,-124"/>
<text text-anchor="middle" x="73" y="-101.8" font-family="Times,serif" font-size="14.00" fill="#000000">model.cpp</text>
</g>
<!-- node11&#45;&gt;node10 -->
<g id="edge9" class="edge">
<title>node11&#45;&gt;node10</title>
<path fill="none" stroke="#000000" d="M73.757,-87.8314C74.0779,-80.131 74.4594,-70.9743 74.816,-62.4166"/>
<polygon fill="#000000" stroke="#000000" points="78.3133,-62.5503 75.2328,-52.4133 71.3194,-62.2589 78.3133,-62.5503"/>
</g>
<!-- node2 -->
<g id="node12" class="node">
<title>node2</title>
<polygon fill="none" stroke="#000000" points="333.8563,-288 254.1437,-288 254.1437,-252 333.8563,-252 333.8563,-288"/>
<text text-anchor="middle" x="294" y="-265.8" font-family="Times,serif" font-size="14.00" fill="#000000">service.cpp</text>
</g>
<!-- node2&#45;&gt;node1 -->
<g id="edge12" class="edge">
<title>node2&#45;&gt;node1</title>
<path fill="none" stroke="#000000" d="M292.4465,-251.8015C291.5583,-241.3976 290.425,-228.1215 289.4224,-216.3768"/>
<polygon fill="#000000" stroke="#000000" points="292.8872,-215.8136 288.5492,-206.1476 285.9125,-216.4091 292.8872,-215.8136"/>
</g>
</g>
</svg>
